<svg width="44" height="44" viewBox="0 0 44 44" fill="none" xmlns="http://www.w3.org/2000/svg">
<path fill-rule="evenodd" clip-rule="evenodd" d="M4.71971 27.0628C5.71755 28.0549 5.71754 29.6634 4.71967 30.6555L4.66857 30.7063C3.6707 31.6984 2.05286 31.6984 1.05501 30.7063C0.0571691 29.7142 0.0571845 28.1057 1.05505 27.1136L1.10615 27.0628C2.10402 26.0707 3.72186 26.0707 4.71971 27.0628Z" fill="black"/>
<path fill-rule="evenodd" clip-rule="evenodd" d="M16.7322 27.828C17.7283 28.8219 17.7253 30.4304 16.7257 31.4207L9.64786 38.4322C8.6482 39.4225 7.03036 39.4196 6.03431 38.4257C5.03826 37.4319 5.04119 35.8234 6.04085 34.8331L13.1187 27.8215C14.1183 26.8312 15.7362 26.8341 16.7322 27.828Z" fill="black"/>
<path fill-rule="evenodd" clip-rule="evenodd" d="M26.3386 39.898C27.1214 38.7306 28.7078 38.4151 29.882 39.1934L30.0353 39.295C31.2095 40.0733 31.5267 41.6506 30.744 42.8179C29.9612 43.9853 28.3747 44.3008 27.2006 43.5225L27.0473 43.4209C25.8731 42.6427 25.5558 41.0654 26.3386 39.898Z" fill="black"/>
<path fill-rule="evenodd" clip-rule="evenodd" d="M43.2005 26.9103C44.1984 27.9024 44.1984 29.5109 43.2005 30.503L39.7255 33.958C38.7276 34.9501 37.1098 34.9501 36.1119 33.958C35.1141 32.9659 35.1141 31.3574 36.1119 30.3653L39.5869 26.9103C40.5848 25.9182 42.2026 25.9182 43.2005 26.9103Z" fill="black"/>
<path fill-rule="evenodd" clip-rule="evenodd" d="M43.2516 14.132C44.2495 15.1241 44.2495 16.7326 43.2516 17.7247L17.5722 43.2559C16.5743 44.248 14.9565 44.248 13.9586 43.2559C12.9607 42.2638 12.9607 40.6553 13.9586 39.6632L39.638 14.132C40.6359 13.1399 42.2537 13.1399 43.2516 14.132Z" fill="black"/>
<path fill-rule="evenodd" clip-rule="evenodd" d="M38.3968 6.28216C39.3947 7.27425 39.3947 8.88275 38.3968 9.87485L23.6279 24.5584C22.6301 25.5505 21.0122 25.5505 20.0144 24.5584C19.0165 23.5664 19.0165 21.9579 20.0144 20.9658L34.7833 6.28216C35.7811 5.29006 37.399 5.29006 38.3968 6.28216Z" fill="black"/>
<path fill-rule="evenodd" clip-rule="evenodd" d="M30.6023 1.3017C31.6009 2.29313 31.602 3.90163 30.6048 4.89439L11.6199 23.7951C10.6227 24.7878 9.00485 24.7889 8.00632 23.7975C7.00779 22.8061 7.00671 21.1976 8.00389 20.2048L26.9888 1.30412C27.986 0.311356 29.6038 0.310274 30.6023 1.3017Z" fill="black"/>
<path fill-rule="evenodd" clip-rule="evenodd" d="M11.8006 7.35227C12.7967 8.34607 12.7939 9.95457 11.7944 10.945L4.35883 18.3122C3.35926 19.3025 1.74142 19.2998 0.745284 18.306C-0.250852 17.3122 -0.248067 15.7037 0.751504 14.7133L8.18704 7.34608C9.18661 6.3557 10.8045 6.35847 11.8006 7.35227Z" fill="black"/>
<path fill-rule="evenodd" clip-rule="evenodd" d="M16.353 0C17.7642 0 18.9082 1.13738 18.9082 2.54042V2.79446C18.9082 4.19749 17.7642 5.33487 16.353 5.33487C14.9418 5.33487 13.7979 4.19749 13.7979 2.79446V2.54042C13.7979 1.13738 14.9418 0 16.353 0Z" fill="black"/>
</svg>
